#!OML:ASF E:\Steps\Project 1\Capture day 1\Session 2\Subject.ASF
:FULLY-SPECIFIED
:DEGREES
67
root 8.74095 16.3256 30.3358 -151.615 0.683668 -179.692
lowerback -29.5107 -2.16749 -3.99708
upperback -2.59849 -0.626206 0.160109
thorax 12.7072 -0.109684 2.19352
lowerneck 1.21039 -2.14349 -4.03988
upperneck -11.8868 -1.75683 7.45833
head -3.60954 -0.793321 2.98369
rclavicle 8.39865e-015 1.11319e-014
rhumerus -34.9574 -18.0569 -80.343
rradius 28.4288
rwrist 1.13637
rhand -8.46491 -53.3988
rfingers 7.12502
rthumb 17.4615 -82.6346
lclavicle 8.39865e-015 1.11319e-014
lhumerus -28.928 3.62951 83.4863
lradius 21.9045
lwrist -4.55281
lhand -20.3199 -13.8074
lfingers 7.12502
lthumb 6.03093 16.0868
rfemur -25.0736 7.05514 18.3917
rtibia 7.74679
rfoot -19.6666 -9.45278
rtoes -30.8539
lfemur -24.5086 -8.51128 -17.479
ltibia 6.66976
lfoot -8.35046 4.80798
ltoes -39.266
68
root 8.74047 16.3247 30.3342 -151.579 0.71942 -179.703
lowerback -29.5629 -2.15706 -3.99557
upperback -2.60747 -0.604578 0.147802
thorax 12.7186 -0.0977082 2.18758
lowerneck 1.20703 -2.15365 -4.05301
upperneck -11.8729 -1.76733 7.50124
head -3.60339 -0.799624 2.99912
rclavicle 1.04362e-015 1.59028e-015
rhumerus -34.9791 -17.9216 -80.4105
rradius 28.5481
rwrist 1.0005
rhand -8.49883 -53.3888
rfingers 7.12502
rthumb 17.4288 -82.6274
lclavicle 1.04362e-015 1.59028e-015
lhumerus -28.9319 3.63222 83.4746
lradius 21.8523
lwrist -4.64721
lhand -20.4034 -13.5802
lfingers 7.12502
lthumb 5.95032 16.3163
rfemur -25.1125 7.24597 18.301
rtibia 7.73127
rfoot -19.6844 -9.52094
rtoes -30.2375
lfemur -24.5371 -8.4329 -17.528
ltibia 6.67196
lfoot -8.28842 4.85759
ltoes -40.6268
69
root 8.73912 16.3231 30.3314 -151.535 0.740265 -179.675
lowerback -29.6701 -2.13701 -3.94682
upperback -2.59954 -0.585189 0.144912
thorax 12.7736 -0.0859665 2.165
lowerneck 1.18924 -2.17198 -4.03518
upperneck -11.9314 -1.78015 7.51301
head -3.6172 -0.804633 3.0006
rclavicle -1.59028e-015 2.70347e-014
rhumerus -34.9185 -18.0061 -80.4196
rradius 28.5492
rwrist 1.10567
rhand -8.5088 -53.3614
rfingers 7.12502
rthumb 17.4192 -82.6009
lclavicle -1.59028e-015 2.70347e-014
lhumerus -28.9164 3.66156 83.4501
lradius 21.7575
lwrist -4.78536
lhand -20.4569 -13.6456
lfingers 7.12502
lthumb 5.89872 16.2523
rfemur -25.1725 7.16423 18.3648
rtibia 7.79083
rfoot -19.5741 -9.52456
rtoes -30.9504
lfemur -24.5585 -8.40714 -17.5113
ltibia 6.62781
lfoot -8.27793 4.93462
ltoes -41.3764
70
root 8.73828 16.3226 30.3279 -151.527 0.773906 -179.699
lowerback -29.7047 -2.14097 -3.9667
upperback -2.59281 -0.580772 0.13989
thorax 12.7964 -0.0851697 2.17188
lowerneck 1.13934 -2.1623 -4.03213
upperneck -11.9596 -1.75929 7.50924
head -3.61859 -0.7914 2.99801
rclavicle -4.67144e-015 -4.77083e-015
rhumerus -34.8452 -18.0443 -80.4398
rradius 28.5489
rwrist 1.19711
rhand -8.51712 -53.4027
rfingers 7.12502
rthumb 17.4112 -82.6429
lclavicle -4.67144e-015 -4.77083e-015
lhumerus -28.9052 3.77098 83.3963
lradius 21.6291
lwrist -4.98153
lhand -20.5389 -13.6172
lfingers 7.12502
lthumb 5.81952 16.2829
rfemur -25.1901 7.02682 18.3835
rtibia 7.85129
rfoot -19.4716 -9.54263
rtoes -31.9407
lfemur -24.5501 -8.47464 -17.5288
ltibia 6.60148
lfoot -8.33071 4.96222
ltoes -40.4971
71
root 8.73897 16.3225 30.3255 -151.53 0.811851 -179.692
lowerback -29.6728 -2.14389 -3.98742
upperback -2.61997 -0.579377 0.158207
thorax 12.7519 -0.0834975 2.20366
lowerneck 1.12211 -2.12844 -4.05632
upperneck -11.9283 -1.71844 7.50157
head -3.60861 -0.770148 2.9979
rclavicle -1.93815e-015 -5.56597e-015
rhumerus -34.7989 -17.9374 -80.4744
rradius 28.5371
rwrist 1.05563
rhand -8.53303 -53.4187
rfingers 7.12502
rthumb 17.3959 -82.6602
lclavicle -1.93815e-015 -5.56597e-015
lhumerus -28.9744 3.86902 83.3624
lradius 21.5486
lwrist -5.12727
lhand -20.5202 -13.4646
lfingers 7.12502
lthumb 5.83759 16.435
rfemur -25.1848 7.10901 18.3515
rtibia 7.84161
rfoot -19.4874 -9.52782
rtoes -31.8863
lfemur -24.5943 -8.47057 -17.5072
ltibia 6.72134
lfoot -8.4904 4.93286
ltoes -39.2373
72
root 8.73952 16.3213 30.3236 -151.496 0.837184 -179.652
lowerback -29.72 -2.13303 -3.95742
upperback -2.63101 -0.570939 0.17071
thorax 12.7598 -0.0767456 2.204
lowerneck 1.11574 -2.11279 -4.06233
upperneck -11.9277 -1.6963 7.50604
head -3.60854 -0.758816 2.99952
rclavicle 9.93923e-016 4.77083e-015
rhumerus -34.7053 -18.0269 -80.4514
rradius 28.4312
rwrist 1.03724
rhand -8.53454 -53.3135
rfingers 7.12502
rthumb 17.3944 -82.5552
lclavicle 9.93923e-016 4.77083e-015
lhumerus -29.0081 3.96104 83.3215
lradius 21.4882
lwrist -5.20194
lhand -20.4051 -13.3654
lfingers 7.12502
lthumb 5.94871 16.5311
rfemur -25.2197 7.24452 18.3404
rtibia 7.82802
rfoot -19.5281 -9.49355
rtoes -31.5309
lfemur -24.7019 -8.34874 -17.4762
ltibia 6.89208
lfoot -8.57454 4.85152
ltoes -39.0047
73
root 8.73867 16.32 30.3201 -151.47 0.86186 -179.642
lowerback -29.8461 -2.10972 -3.91278
upperback -2.59053 -0.545987 0.143591
thorax 12.8593 -0.0655203 2.15945
lowerneck 1.07231 -2.09517 -4.04061
upperneck -11.8933 -1.67116 7.50882
head -3.59269 -0.746167 2.99508
rclavicle 1.59028e-015 -7.55382e-015
rhumerus -34.5893 -18.1516 -80.4818
rradius 28.3811
rwrist 1.05796
rhand -8.53723 -53.2187
rfingers 7.12502
rthumb 17.3919 -82.4606
lclavicle 1.59028e-015 -7.55382e-015
lhumerus -28.9658 3.92965 83.2924
lradius 21.4399
lwrist -5.20568
lhand -20.5376 -13.3781
lfingers 7.12502
lthumb 5.82079 16.522
rfemur -25.2194 7.2472 18.3309
rtibia 7.7668
rfoot -19.504 -9.46206
rtoes -31.5435
lfemur -24.7475 -8.26725 -17.4912
ltibia 6.94738
lfoot -8.52833 4.80514
ltoes -39.3288
